<svg xmlns="http://www.w3.org/2000/svg" viewBox="0 0 235.6 72.09">
  <defs>
    <style>
      .cls-1 {
        fill: #696969;
      }

      .cls-2 {
        fill: #040000;
      }

      .cls-3 {
        fill: #55adb8;
      }
    </style>
  </defs>
  <title>nameLogo</title>
  <g id="Layer_1" data-name="Layer 1">
    <g>
      <path class="cls-1" d="M61.82,148.9A51.15,51.15,0,0,1,61,158a39.13,39.13,0,0,1-2.28,8,23.07,23.07,0,0,1-3.68,6.2A13.31,13.31,0,0,1,50,176v.16H63.1v1.6H44.38a12.19,12.19,0,0,1-6.8-2,18,18,0,0,1-5.44-5.84,32.23,32.23,0,0,1-3.64-9.12,49.31,49.31,0,0,1-1.32-11.88,51.53,51.53,0,0,1,1.24-11.72A32.34,32.34,0,0,1,31.94,128a18.45,18.45,0,0,1,5.48-6,12.31,12.31,0,0,1,7-2.16A12.45,12.45,0,0,1,51.58,122a18.41,18.41,0,0,1,5.48,6,33,33,0,0,1,3.52,9.2A51.12,51.12,0,0,1,61.82,148.9Zm-1.76,0A50.61,50.61,0,0,0,59,138.22a33.3,33.3,0,0,0-3.08-8.72A17.33,17.33,0,0,0,51,123.62a10.94,10.94,0,0,0-13,0,17.36,17.36,0,0,0-4.88,5.8A32.66,32.66,0,0,0,30,138.1a51.49,51.49,0,0,0-1.08,10.8A49.89,49.89,0,0,0,30,159.54a33.26,33.26,0,0,0,3.08,8.68A16.9,16.9,0,0,0,38,174.06a10.8,10.8,0,0,0,6.52,2.12,10.46,10.46,0,0,0,6.6-2.28A18,18,0,0,0,56,167.82a34.24,34.24,0,0,0,3-8.72A49.42,49.42,0,0,0,60.06,148.9Z" transform="translate(-27.18 -106.73)"/>
      <path class="cls-1" d="M72.86,177.78V139.14h1.76v38.64Z" transform="translate(-27.18 -106.73)"/>
      <path class="cls-1" d="M105.66,169c0,1.5,0,3.07.16,4.72s.21,3,.32,4.08h-1.68c-.06-.53-.11-1.21-.16-2s-.1-1.68-.12-2.56-.06-1.72-.08-2.52,0-1.49,0-2.08h-.16q-1.12,5.28-3.68,7.76a8.43,8.43,0,0,1-6.08,2.48,8.19,8.19,0,0,1-3.16-.64,7.74,7.74,0,0,1-2.84-2,10.07,10.07,0,0,1-2-3.48,14.37,14.37,0,0,1-.76-5,13,13,0,0,1,1.44-6.56,11.33,11.33,0,0,1,3.6-3.88A12.58,12.58,0,0,1,95,155.42,26.12,26.12,0,0,1,99.5,155h4.4v-3q0-6.48-2.24-9.48a7.13,7.13,0,0,0-6-3,7.88,7.88,0,0,0-4.28,1.24A11,11,0,0,0,88.06,144l-1.2-1.12a10.44,10.44,0,0,1,3.92-3.68,10.16,10.16,0,0,1,4.88-1.36A8.77,8.77,0,0,1,103,141.3q2.64,3.45,2.64,10.72Zm-1.76-12.4H100a26.35,26.35,0,0,0-4.44.4,11.3,11.3,0,0,0-4.16,1.6,9.11,9.11,0,0,0-3.08,3.36,11.86,11.86,0,0,0-1.2,5.76,12.49,12.49,0,0,0,.68,4.44,8.58,8.58,0,0,0,1.72,2.92,6.29,6.29,0,0,0,2.32,1.64,6.5,6.5,0,0,0,2.48.52,6.94,6.94,0,0,0,4.64-1.56,11.34,11.34,0,0,0,3-4,20.93,20.93,0,0,0,1.56-5.48,40.41,40.41,0,0,0,.44-5.8Z" transform="translate(-27.18 -106.73)"/>
      <path class="cls-1" d="M120.46,148.9a16,16,0,0,1,3.52-8,8.47,8.47,0,0,1,6.64-3,7.84,7.84,0,0,1,4.92,1.4,9.26,9.26,0,0,1,2.76,3.52,15.41,15.41,0,0,1,1.24,4.64,45,45,0,0,1,.28,4.76v25.6h-1.76v-25.6a40.77,40.77,0,0,0-.24-4.32,14.57,14.57,0,0,0-1-4.12,8,8,0,0,0-2.28-3.08,6,6,0,0,0-3.88-1.2,7.16,7.16,0,0,0-4.48,1.48,12.16,12.16,0,0,0-3.2,3.8A19.12,19.12,0,0,0,121,149.9a24.76,24.76,0,0,0-.64,5.48v22.4h-1.76V148.9c0-.64,0-1.4,0-2.28s-.06-1.78-.08-2.72-.06-1.82-.08-2.68-.07-1.54-.12-2.08h1.76c0,.54.09,1.23.12,2.08s0,1.75.08,2.68,0,1.84,0,2.72v2.28Z" transform="translate(-27.18 -106.73)"/>
      <path class="cls-2" d="M199.1,177.78l7.44-40.56h-.32l-22,40.56h-9.36l-7.52-40.56H167l-6.8,40.56H147.74l10-56.64h18.64l6.56,36.72h.32l19.12-36.72h19.76l-10,56.64Z" transform="translate(-27.18 -106.73)"/>
      <path class="cls-2" d="M262.78,149.62q0,1.13-.12,2.4a23.86,23.86,0,0,1-.36,2.48L259.58,170a42,42,0,0,0-.6,4.24c-.14,1.44-.2,2.62-.2,3.52H247.42c0-.58,0-1.26.08-2s.13-1.5.24-2.2h-.16q-4.41,5.21-12.16,5.2a18.33,18.33,0,0,1-4.28-.52,11.53,11.53,0,0,1-4-1.76,9.28,9.28,0,0,1-2.92-3.28,10.21,10.21,0,0,1-1.12-5,12.28,12.28,0,0,1,2.4-7.84,15.89,15.89,0,0,1,6.28-4.72,32.75,32.75,0,0,1,8.8-2.32,77.68,77.68,0,0,1,9.88-.64,6,6,0,0,0,.16-1.12v-.72a3.79,3.79,0,0,0-1.64-3.4,8.35,8.35,0,0,0-4.6-1.08,15.5,15.5,0,0,0-5.48,1,20.24,20.24,0,0,0-5,2.72l-5.28-7.36a26.57,26.57,0,0,1,8.28-4.44,29.1,29.1,0,0,1,9.24-1.56,27.7,27.7,0,0,1,6.64.76,15.25,15.25,0,0,1,5.24,2.36,11.85,11.85,0,0,1,3.48,4A12.13,12.13,0,0,1,262.78,149.62Zm-14.16,10.72c-1.6,0-3.23.07-4.88.2a19.91,19.91,0,0,0-4.44.84,9.28,9.28,0,0,0-3.24,1.76,3.73,3.73,0,0,0-1.28,3,3.28,3.28,0,0,0,1.64,3.24,7.84,7.84,0,0,0,3.64.84,8.78,8.78,0,0,0,6.16-2.28,10,10,0,0,0,3.12-5.64l.4-1.92Z" transform="translate(-27.18 -106.73)"/>
    </g>
  </g>
  <g id="Layer_2" data-name="Layer 2">
    <circle class="cls-3" cx="50.35" cy="27.84" r="2.91"/>
    <circle class="cls-3" cx="65.36" cy="12.47" r="12.47"/>
  </g>
</svg>
