<svg xmlns="http://www.w3.org/2000/svg" viewBox="0 0 86.91 53.61">
  <defs>
    <style>
      .cls-1 {
        fill: #101010;
      }
    </style>
  </defs>
  <title>logo_text2</title>
  <g id="Layer_2" data-name="Layer 2">
    <g id="Layer_1-2" data-name="Layer 1">
      <g id="Layer_2-2" data-name="Layer 2">
        <g>
          <g>
            <path class="cls-1" d="M31.63,31.84a.63.63,0,0,1-.27-.08,12.6,12.6,0,0,1-2.18-1.39V11.22s1-5.82,5.06-8.28A16.05,16.05,0,0,1,42.31.5a8.71,8.71,0,0,1,2.61.36c3.06,1,6.39,2.51,7.91,6.81,1.66,4.67.88,19,.87,19.1h0S53,30.46,50.22,31.3a8.92,8.92,0,0,1-2.65.4A5.37,5.37,0,0,1,43.19,30q-.25-.36-.51-.69c-1-1.36-1.83-2.43-1.76-6.21.08-4.3.15-10.06.16-10.77a25.85,25.85,0,0,1,1.75-4.64l.29-.33L45.78,9A12.25,12.25,0,0,1,45,11c-.25.44-.36,2.67-.17,12.74,0,.84,0,1.44,0,1.66a2.29,2.29,0,0,0,2.54,2.09c1.06,0,2.67-.44,2.78-1.64.08-.88-.13-13.21-.16-14.61,0-.28-.92-5.08-4.62-6a12.87,12.87,0,0,0-3.19-.45,9.66,9.66,0,0,0-3.71.78c-1.39.53-4.28,2.39-4.94,4.51-.51,1.63-.53,12.75-.52,17.45v.18c0,.46-.08,1.54-.08,1.54C32.81,30.29,32.23,31.84,31.63,31.84Z" transform="translate(-4.75)"/>
            <path class="cls-1" d="M42.31,1h0a8.36,8.36,0,0,1,2.46.34c2.94.92,6.14,2.41,7.59,6.49,1.56,4.42.9,17.74.84,18.84-.09.44-.83,3.45-3.13,4.15a8.24,8.24,0,0,1-2.5.38,5,5,0,0,1-4-1.5c-.17-.25-.35-.48-.52-.71-1-1.27-1.72-2.28-1.66-5.89.08-4.18.15-9.74.16-10.7A29.38,29.38,0,0,1,43.2,8h0l2,1.21a9.45,9.45,0,0,1-.58,1.51c-.29.49-.46,1.67-.24,13,0,.83,0,1.44,0,1.65a2.76,2.76,0,0,0,3,2.59c1.49,0,3.14-.66,3.28-2.1.08-.88-.12-12.37-.16-14.66,0,0,0-.1,0-.16s-1-5.31-5-6.33a13.47,13.47,0,0,0-3.32-.46,10.11,10.11,0,0,0-3.88.81c-1.71.65-4.56,2.63-5.25,4.83-.51,1.63-.56,11.73-.54,17.6v.18c0,.34,0,1.12-.07,1.46a4.76,4.76,0,0,1-.89,2.2h0a14.6,14.6,0,0,1-1.91-1.19V11.3c.13-.66,1.18-5.73,4.82-7.93A15.47,15.47,0,0,1,42.31,1m0-1A16.4,16.4,0,0,0,34,2.52c-4.32,2.61-5.3,8.7-5.3,8.7V30.59a11.2,11.2,0,0,0,2.45,1.61,1,1,0,0,0,.5.14c1.34,0,1.86-3.09,1.86-3.09s.08-1.11.08-1.58-.08-15.66.49-17.48S37.24,6.55,38.71,6a9.09,9.09,0,0,1,3.53-.75,12.45,12.45,0,0,1,3.07.43c3.43.87,4.24,5.54,4.24,5.54s.25,13.68.16,14.55S48.25,27,47.43,27s-2-.4-2-1.59-.32-13.44.09-14.15a16.47,16.47,0,0,0,.89-2.46L43,6.71l-.57.63c-.57.63-1.88,4.9-1.88,4.9s-.08,6.25-.16,10.84,1.14,5.46,2.37,7.2c.85,1.21,2.69,1.92,4.78,1.92a9.56,9.56,0,0,0,2.8-.42c3.1-1,3.83-5,3.83-5S55,12.32,53.3,7.5,47.59,1.17,45.07.38A9.44,9.44,0,0,0,42.31,0Z" transform="translate(-4.75)"/>
          </g>
          <g>
            <path class="cls-1" d="M63.79,31.53c-.72,0-1.39-1-1.64-1.46,0-1.47.22-14-.41-19.08-.64-5.22-7-6.41-8.09-6.58L49.91.84c.3,0,.72,0,1.29,0,1.35,0,3.21.07,5.53.22,5.07.32,9.32,5.36,9.49,11.24,0,1.7.11,3.49.18,5.24.18,4.68.43,11-.13,12-.28.05-.45.29-.69.64-.37.51-.91,1.28-1.65,1.41Z" transform="translate(-4.75)"/>
            <path class="cls-1" d="M51.2,1.31c1.34,0,3.19.07,5.5.22,4.74.3,8.86,5.22,9,10.76,0,1.7.11,3.49.18,5.24.17,4.33.4,10.18,0,11.54a2.22,2.22,0,0,0-.71.75c-.3.41-.79,1.11-1.32,1.2h-.06c-.35,0-.85-.59-1.13-1.08,0-2,.19-14-.42-19-.66-5.36-6.81-6.73-8.36-7L51.12,1.31h.08m0-1c-2.34,0-2.35.22-2.35.22l4.57,4.35s7.17.87,7.82,6.17.41,19.14.41,19.14S62.53,32,63.79,32L64,32c1.38-.24,2.1-2.06,2.36-2.06h0c1.26,0,.53-9.75.32-17.69C66.54,6,61.91.85,56.76.53,54.13.37,52.38.31,51.2.31Z" transform="translate(-4.75)"/>
          </g>
        </g>
        <g>
          <path class="cls-1" d="M4.85,45c0-1.47,0-2.72-.1-3.84h3.1L8,42.71h.07a4,4,0,0,1,3.45-1.84,3.21,3.21,0,0,1,3.15,2h.05a4.89,4.89,0,0,1,1.49-1.42,4.09,4.09,0,0,1,2.13-.55c2.29,0,3.84,1.68,3.84,5.12v7.37H18.63V46.54c0-1.65-.45-2.71-1.61-2.71a1.69,1.69,0,0,0-1.59,1.26,3.4,3.4,0,0,0-.12.94v7.33H11.74v-7.1c0-1.35-.41-2.43-1.57-2.43a1.77,1.77,0,0,0-1.62,1.29,3.16,3.16,0,0,0-.13,1v7.29H4.85Z" transform="translate(-4.75)"/>
          <path class="cls-1" d="M31.52,53.36l-.21-1.22h-.08A4,4,0,0,1,28,53.61a3.62,3.62,0,0,1-3.74-3.74c0-3.19,2.85-4.64,6.71-4.64V45c0-.74-.42-1.6-2.09-1.6a6.37,6.37,0,0,0-3.11.85l-.66-2.36a9.3,9.3,0,0,1,4.46-1.05c4,0,5.05,2.47,5.05,5.22v4.35a18.35,18.35,0,0,0,.19,2.92Zm-.47-5.84c-1.72,0-3.26.45-3.26,2A1.36,1.36,0,0,0,29.2,51,1.87,1.87,0,0,0,31,49.72a2.11,2.11,0,0,0,.07-.62Z" transform="translate(-4.75)"/>
          <path class="cls-1" d="M37.4,35.75h3.65v6.79h.05a4,4,0,0,1,3.24-1.67c2.37,0,3.94,1.75,3.94,5.27v7.22H44.63V46.42c0-1.48-.46-2.57-1.74-2.57a1.79,1.79,0,0,0-1.72,1.29,2.88,2.88,0,0,0-.12.86v7.36H37.4Z" transform="translate(-4.75)"/>
          <path class="cls-1" d="M57.59,53.36l-.21-1.22h-.07a4,4,0,0,1-3.26,1.47,3.62,3.62,0,0,1-3.73-3.74c0-3.19,2.84-4.64,6.7-4.64V45c0-.74-.41-1.6-2.08-1.6a6.34,6.34,0,0,0-3.11.85l-.67-2.36a9.31,9.31,0,0,1,4.47-1.05c4,0,5,2.47,5,5.22v4.35a17.24,17.24,0,0,0,.19,2.92Zm-.46-5.84c-1.73,0-3.26.45-3.26,2A1.36,1.36,0,0,0,55.28,51a1.87,1.87,0,0,0,1.78-1.3,2.51,2.51,0,0,0,.07-.62Z" transform="translate(-4.75)"/>
          <path class="cls-1" d="M63.37,53.36c.05-.89.1-2.33.1-3.65v-14h3.64v6.77h0a3.88,3.88,0,0,1,3.35-1.65c2.77,0,4.59,2.51,4.57,6.12,0,4.37-2.46,6.62-5.11,6.62a3.54,3.54,0,0,1-3.28-1.88h-.06l-.16,1.63Zm3.74-5a2.43,2.43,0,0,0,.09.7,2,2,0,0,0,1.9,1.6c1.46,0,2.3-1.29,2.3-3.53,0-2-.74-3.43-2.3-3.43a2,2,0,0,0-1.9,1.65,3.3,3.3,0,0,0-.09.72Z" transform="translate(-4.75)"/>
          <path class="cls-1" d="M81,37.78a1.83,1.83,0,0,1-2,1.86,1.87,1.87,0,1,1,2-1.86ZM77.27,53.36V41.12h3.65V53.36Z" transform="translate(-4.75)"/>
          <path class="cls-1" d="M83.7,50.15a6.57,6.57,0,0,0,3,.83c1.06,0,1.55-.38,1.55-1s-.39-1-1.69-1.49c-2.38-.92-3.19-2.27-3.18-3.61,0-2.27,1.83-4,4.69-4a7.31,7.31,0,0,1,3.15.67l-.63,2.55a5.43,5.43,0,0,0-2.37-.63c-.9,0-1.39.41-1.39,1s.43.89,1.82,1.45c2.16.86,3,2.08,3.06,3.74,0,2.35-1.79,3.93-5,3.93a7.65,7.65,0,0,1-3.61-.81Z" transform="translate(-4.75)"/>
        </g>
      </g>
    </g>
  </g>
</svg>
