<?xml version="1.0" encoding="utf-8"?>
<!-- Generator: Adobe Illustrator 23.0.1, SVG Export Plug-In . SVG Version: 6.00 Build 0)  -->
<svg version="1.1" id="Layer_1" xmlns="http://www.w3.org/2000/svg" xmlns:xlink="http://www.w3.org/1999/xlink" x="0px" y="0px"
	 viewBox="0 0 100 100" style="enable-background:new 0 0 100 100;" xml:space="preserve">
<style type="text/css">
	.st0{fill:#101010;}
</style>
<g id="Layer_2">
	<g>
		<g>
			<path class="st0" d="M33.7,55.5c-0.1,0-0.2,0-0.3-0.1c-1.2-0.6-1.9-1.2-2.2-1.4V34.9c0,0,1-5.8,5.1-8.3c2.6-1.6,5.5-2.4,8.1-2.4
				c1,0,1.9,0.1,2.6,0.4c3.1,1,6.4,2.5,7.9,6.8c1.7,4.7,0.9,19,0.9,19.1l0,0c0,0-0.7,3.7-3.5,4.5c-0.9,0.3-1.8,0.4-2.7,0.4
				c-2,0-3.6-0.7-4.4-1.7c-0.2-0.2-0.3-0.5-0.5-0.7c-1-1.4-1.8-2.4-1.8-6.2c0.1-4.3,0.2-10.1,0.2-10.8c0.6-2,1.4-4.3,1.7-4.6
				l0.3-0.3l2.7,1.6c-0.2,0.6-0.5,1.5-0.7,2c-0.3,0.4-0.4,2.7-0.2,12.7c0,0.8,0,1.4,0,1.7c0,1.4,1.3,2.1,2.5,2.1
				c1.1,0,2.7-0.4,2.8-1.6c0.1-0.9-0.1-13.2-0.2-14.6c0-0.3-0.9-5.1-4.6-6c-1.2-0.3-2.2-0.4-3.2-0.4c-1.6,0-2.8,0.4-3.7,0.8
				c-1.4,0.5-4.3,2.4-4.9,4.5c-0.5,1.6-0.5,12.7-0.5,17.5l0,0.2c0,0.5-0.1,1.5-0.1,1.5C34.9,53.9,34.3,55.5,33.7,55.5z"/>
			<path class="st0" d="M44.4,24.6L44.4,24.6c0.9,0,1.8,0.1,2.5,0.3c2.9,0.9,6.1,2.4,7.6,6.5c1.6,4.4,0.9,17.7,0.8,18.8
				c-0.1,0.4-0.8,3.5-3.1,4.2c-0.8,0.3-1.7,0.4-2.5,0.4c-1.8,0-3.3-0.6-4-1.5c-0.2-0.2-0.4-0.5-0.5-0.7c-1-1.3-1.7-2.3-1.7-5.9
				c0.1-4.2,0.1-9.7,0.2-10.7c0.6-1.9,1.3-4,1.6-4.4l0,0l2,1.2c-0.2,0.6-0.4,1.2-0.6,1.5c-0.3,0.5-0.5,1.7-0.2,13c0,0.8,0,1.4,0,1.7
				c0,1.7,1.5,2.6,3,2.6c1.5,0,3.1-0.7,3.3-2.1c0.1-0.9-0.1-12.4-0.2-14.7c0-0.1,0-0.1,0-0.2c0-0.2-1-5.3-5-6.3
				c-1.2-0.3-2.3-0.5-3.3-0.5c-1.7,0-2.9,0.4-3.9,0.8c-1.7,0.6-4.6,2.6-5.2,4.8c-0.5,1.6-0.6,11.7-0.5,17.6l0,0.2
				c0,0.3-0.1,1.1-0.1,1.5c-0.2,0.9-0.6,2-0.9,2.2c0,0,0,0,0,0c-1-0.5-1.6-0.9-1.9-1.2V34.9c0.1-0.7,1.2-5.7,4.8-7.9
				C39.1,25.5,41.9,24.6,44.4,24.6 M44.4,23.6c-2.4,0-5.3,0.7-8.3,2.5c-4.3,2.6-5.3,8.7-5.3,8.7v19.4c0,0,0.7,0.7,2.4,1.6
				c0.2,0.1,0.3,0.1,0.5,0.1c1.3,0,1.9-3.1,1.9-3.1s0.1-1.1,0.1-1.6c0-0.5-0.1-15.7,0.5-17.5c0.6-1.8,3.2-3.6,4.6-4.2
				c0.9-0.4,2-0.7,3.5-0.7c0.9,0,1.9,0.1,3.1,0.4c3.4,0.9,4.2,5.5,4.2,5.5s0.2,13.7,0.2,14.6c-0.1,0.9-1.5,1.2-2.3,1.2
				c-0.8,0-2-0.4-2-1.6c0-1.2-0.3-13.4,0.1-14.2c0.4-0.7,0.9-2.5,0.9-2.5l-3.3-2.1c0,0,0,0-0.6,0.6c-0.6,0.6-1.9,4.9-1.9,4.9
				s-0.1,6.2-0.2,10.8c-0.1,4.6,1.1,5.5,2.4,7.2c0.9,1.2,2.7,1.9,4.8,1.9c0.9,0,1.9-0.1,2.8-0.4c3.1-0.9,3.8-5,3.8-5
				s0.8-14.5-0.9-19.3c-1.7-4.8-5.7-6.3-8.2-7.1C46.4,23.8,45.5,23.6,44.4,23.6L44.4,23.6z"/>
		</g>
		<g>
			<path class="st0" d="M65.9,55.2c-0.7,0-1.4-1-1.6-1.5c0-1.5,0.2-14-0.4-19.1c-0.6-5.2-6.9-6.4-8.1-6.6L52,24.5c0.3,0,0.7,0,1.3,0
				c1.3,0,3.2,0.1,5.5,0.2c5.1,0.3,9.3,5.4,9.5,11.2c0,1.7,0.1,3.5,0.2,5.2c0.2,4.7,0.4,11-0.1,12c-0.3,0.1-0.5,0.3-0.7,0.6
				c-0.4,0.5-0.9,1.3-1.6,1.4C66,55.2,65.9,55.2,65.9,55.2z"/>
			<path class="st0" d="M53.3,25c1.3,0,3.2,0.1,5.5,0.2c4.7,0.3,8.9,5.2,9,10.8c0,1.7,0.1,3.5,0.2,5.2c0.2,4.3,0.4,10.2,0,11.5
				c-0.3,0.2-0.5,0.5-0.7,0.7c-0.3,0.4-0.8,1.1-1.3,1.2c0,0,0,0-0.1,0c-0.4,0-0.9-0.6-1.1-1.1c0-2,0.2-14.1-0.4-19
				c-0.7-5.4-6.8-6.7-8.4-7L53.3,25C53.2,25,53.3,25,53.3,25 M53.3,24C51,24,51,24.2,51,24.2l4.6,4.4c0,0,7.2,0.9,7.8,6.2
				s0.4,19.1,0.4,19.1s0.9,1.8,2.1,1.8c0.1,0,0.1,0,0.2,0c1.4-0.2,2.1-2.1,2.4-2.1c0,0,0,0,0,0c0,0,0,0,0,0c1.3,0,0.5-9.8,0.3-17.7
				c-0.2-6.3-4.8-11.4-10-11.7C56.2,24,54.5,24,53.3,24L53.3,24z"/>
		</g>
	</g>
	<g>
		<g>
			<path class="st0" d="M6.9,68.6c0-1.5,0-2.7-0.1-3.8H10l0.2,1.6h0.1c0.6-0.8,1.6-1.8,3.5-1.8c1.5,0,2.7,0.8,3.1,2h0
				c0.4-0.6,0.9-1.1,1.5-1.4c0.6-0.4,1.3-0.6,2.1-0.6c2.3,0,3.8,1.7,3.8,5.1V77h-3.6v-6.8c0-1.7-0.4-2.7-1.6-2.7
				c-0.8,0-1.3,0.5-1.6,1.3c-0.1,0.2-0.1,0.6-0.1,0.9V77h-3.6v-7.1c0-1.3-0.4-2.4-1.6-2.4c-0.8,0-1.4,0.6-1.6,1.3
				c-0.1,0.3-0.1,0.6-0.1,1V77H6.9V68.6z"/>
			<path class="st0" d="M33.6,77l-0.2-1.2h-0.1c-0.8,1-1.9,1.5-3.3,1.5c-2.3,0-3.7-1.7-3.7-3.7c0-3.2,2.8-4.6,6.7-4.6v-0.2
				c0-0.7-0.4-1.6-2.1-1.6c-1.2,0-2.3,0.4-3.1,0.9l-0.7-2.4c0.8-0.5,2.4-1,4.5-1c4,0,5,2.5,5,5.2v4.4c0,1.1,0.1,2.2,0.2,2.9H33.6z
				 M33.2,71.2c-1.7,0-3.3,0.4-3.3,2c0,1.1,0.7,1.5,1.4,1.5c0.8,0,1.5-0.5,1.8-1.3c0.1-0.2,0.1-0.4,0.1-0.6V71.2z"/>
			<path class="st0" d="M39.5,59.4h3.7v6.8h0c0.4-0.5,0.8-0.9,1.4-1.2c0.5-0.3,1.2-0.5,1.9-0.5c2.4,0,3.9,1.8,3.9,5.3V77h-3.7v-6.9
				c0-1.5-0.5-2.6-1.7-2.6c-0.9,0-1.5,0.5-1.7,1.3c-0.1,0.2-0.1,0.6-0.1,0.9V77h-3.7V59.4z"/>
			<path class="st0" d="M59.7,77l-0.2-1.2h-0.1c-0.8,1-1.9,1.5-3.3,1.5c-2.3,0-3.7-1.7-3.7-3.7c0-3.2,2.8-4.6,6.7-4.6v-0.2
				c0-0.7-0.4-1.6-2.1-1.6c-1.2,0-2.3,0.4-3.1,0.9l-0.7-2.4c0.8-0.5,2.4-1,4.5-1c4,0,5,2.5,5,5.2v4.4c0,1.1,0.1,2.2,0.2,2.9H59.7z
				 M59.2,71.2c-1.7,0-3.3,0.4-3.3,2c0,1.1,0.7,1.5,1.4,1.5c0.8,0,1.5-0.5,1.8-1.3c0.1-0.2,0.1-0.4,0.1-0.6V71.2z"/>
			<path class="st0" d="M65.5,77c0.1-0.9,0.1-2.3,0.1-3.6v-14h3.6v6.8h0.1c0.7-1,1.8-1.6,3.3-1.6c2.8,0,4.6,2.5,4.6,6.1
				c0,4.4-2.5,6.6-5.1,6.6c-1.3,0-2.5-0.5-3.3-1.9h-0.1L68.6,77H65.5z M69.2,72.1c0,0.3,0,0.5,0.1,0.7c0.3,1,1,1.6,1.9,1.6
				c1.5,0,2.3-1.3,2.3-3.5c0-2-0.7-3.4-2.3-3.4c-0.9,0-1.7,0.7-1.9,1.7c-0.1,0.2-0.1,0.5-0.1,0.7V72.1z"/>
			<path class="st0" d="M83.1,61.4c0,1.1-0.8,1.9-1.9,1.9c-1.1,0-1.9-0.8-1.9-1.9c0-1.1,0.8-1.9,1.9-1.9
				C82.3,59.5,83.1,60.3,83.1,61.4z M79.4,77V64.8H83V77H79.4z"/>
			<path class="st0" d="M85.8,73.8c0.6,0.4,1.9,0.8,2.9,0.8c1.1,0,1.5-0.4,1.5-1c0-0.6-0.4-1-1.7-1.5c-2.4-0.9-3.2-2.3-3.2-3.6
				c0-2.3,1.8-4,4.7-4c1.3,0,2.4,0.3,3.2,0.7l-0.6,2.6c-0.5-0.3-1.4-0.6-2.4-0.6c-0.9,0-1.4,0.4-1.4,1c0,0.6,0.4,0.9,1.8,1.5
				c2.2,0.9,3,2.1,3.1,3.7c0,2.4-1.8,3.9-5,3.9c-1.4,0-2.8-0.3-3.6-0.8L85.8,73.8z"/>
		</g>
	</g>
</g>
</svg>
