<svg xmlns="http://www.w3.org/2000/svg" viewBox="0 0 512 512">
  <defs>
    <style>
      .cls-1 {
        fill: #f32f66;
      }

      .cls-2 {
        fill: #fff;
      }
    </style>
  </defs>
  <title>email</title>
  <g id="Layer_2" data-name="Layer 2">
    <g id="Layer_1-2" data-name="Layer 1">
      <g id="Capa_1" data-name="Capa 1">
        <g>
          <circle class="cls-1" cx="256" cy="256" r="256"/>
          <g>
            <path class="cls-1" d="M443.06,402.06H68.94a12.39,12.39,0,0,1-12.39-12.39V137.18a12.39,12.39,0,0,1,12.39-12.39H443.06a12.39,12.39,0,0,1,12.39,12.39V389.67a12.39,12.39,0,0,1-12.39,12.39ZM81.34,377.23H430.66V149.62H81.34Z"/>
            <path class="cls-1" d="M256,302.29a54.67,54.67,0,0,1-36.55-14L60.72,146.43A12.39,12.39,0,0,1,69,124.79H443.06a12.41,12.41,0,0,1,8.22,21.64L292.56,288.31A54.71,54.71,0,0,1,256,302.29ZM101.43,149.62l134.5,120.27a30,30,0,0,0,40.09,0h0L410.51,149.62Z"/>
            <path class="cls-1" d="M443.06,400.34H68.94a12.4,12.4,0,0,1-8.22-21.63L200.07,254.18a12.4,12.4,0,0,1,17.09,18l-.56.5L101.5,375.55H410.58L295.48,272.66a12.4,12.4,0,1,1,16-19l.56.5L451.28,378.71A12.4,12.4,0,0,1,443,400.34Z"/>
          </g>
        </g>
      </g>
      <path class="cls-2" d="M101.43,149.62H410.51L268.76,274.71s-14.5,10.45-32.83-4.82S101.43,149.62,101.43,149.62Z"/>
      <polygon class="cls-2" points="81.34 164.86 81.34 360.28 190.66 262.57 81.34 164.86"/>
      <polygon class="cls-2" points="321.37 262.55 427.89 357.8 430.66 164.86 321.37 262.55"/>
      <path class="cls-2" d="M101.5,375.55H410.58L301,277.57s-4.43,17.3-33.7,23.54-58-21.9-58-21.9Z"/>
    </g>
  </g>
</svg>
