<svg xmlns="http://www.w3.org/2000/svg" viewBox="0 0 73.72 74.21">
  <defs>
    <style>
      .cls-1 {
        fill: none;
        stroke: #e23361;
        stroke-miterlimit: 10;
      }
    </style>
  </defs>
  <title>letter</title>
  <g id="Layer_2" data-name="Layer 2">
    <path class="cls-1" d="M15.17,53.14l-1.7-.85V50s5.72-15.69,8-17.17a14.57,14.57,0,0,1,4.24-1.91H41S48.6,18,58.55,15.05s24.12-2.33,25.61-1.69,4.44,22.22-1.7,30.26a75.11,75.11,0,0,1-14.6,14s.64,13.54.42,15a10.1,10.1,0,0,1-4.23,5.93c-2.54,1.69-15.66,7.4-15.66,7.4l-3.17-3S48,61.61,41.2,57.8s-14.39-4.45-19.47-4.24S15.17,53.14,15.17,53.14Z" transform="translate(-12.96 -12.32)"/>
    <path class="cls-1" d="M33.79,60.34s-6.35-3.81-11.43,0-9.1,8.88-8.89,17.14l.21,8.25s15.24.85,19.26-2.75,10.58-9.52,6.77-15.24S33.79,60.34,33.79,60.34Z" transform="translate(-12.96 -12.32)"/>
    <path class="cls-1" d="M22.15,76.63s4.44.42,6.77-1.69,3.39-5.72,1.27-6.56-8-.55-8,3.85Z" transform="translate(-12.96 -12.32)"/>
    <path class="cls-1" d="M38.87,48.06a11.67,11.67,0,0,1,6.77,4.66,41.2,41.2,0,0,1,4.19,6.77S68.71,50,72.52,44.68s6.56-8.47,6.56-15.45V19.49S67.44,18.22,59,21.82,38.87,48.06,38.87,48.06Z" transform="translate(-12.96 -12.32)"/>
    <circle class="cls-1" cx="52.72" cy="20.69" r="5.29"/>
  </g>
</svg>
