<svg xmlns="http://www.w3.org/2000/svg" viewBox="0 0 94.58 93.64">
  <defs>
    <style>
      .cls-1 {
        fill: #4997a6;
      }

      .cls-2 {
        font-size: 80px;
        fill: #252525;
        font-family: BradleyHandITCTT-Bold, Bradley Hand;
        font-weight: 700;
        letter-spacing: -0.01em;
      }
    </style>
  </defs>
  <title>name_logo</title>
  <g id="Layer_2" data-name="Layer 2">
    <g id="Layer_1-2" data-name="Layer 1">
      <path class="cls-1" d="M90,75.16c-6.31,0-12.62.2-18.93.61s-12.62,1-18.93,1.54a301,301,0,0,1-37.86.79C11.13,78,8,77.78,4.82,77.59l-1.18-.07-.3,0H3.2l-.32,0a2.7,2.7,0,0,1-.48-.09A3.19,3.19,0,0,1,0,74.68a3.75,3.75,0,0,1,0-.42v-.52l0-.59L.15,72l.32-4.73c.41-6.31.79-12.62.91-18.93s.11-12.62-.06-18.93l-.14-4.73L1,19.91C.91,18.33.84,16.75.74,15.17L.61,12.81.55,11.62l0-.29v-.08a1.08,1.08,0,0,1,0-.22,2.67,2.67,0,0,1,2.64-2.5c6.31-.34,12.62-.77,18.93-1S34.72,7.09,41,6.94c12.62-.29,25.24-.62,37.86-.49,3.15,0,6.31.06,9.46.15l1.19,0H90l.44,0a3.87,3.87,0,0,1,.68.12,4.58,4.58,0,0,1,3.44,3.86,3.43,3.43,0,0,1,0,.59v1.11l0,1.19-.14,4.73c-.22,6.31-.69,12.62-1.22,18.93S92,49.8,91.59,56.11c-.24,3.16-.38,6.31-.5,9.47C91,67.15,91,68.73,91,70.31l0,2.36v1.19a2.44,2.44,0,0,1-.07.73A.9.9,0,0,1,90,75.16Zm0-.8c.09,0,.09,0,.08-.5V72.67l0-2.36c0-1.58-.07-3.16-.13-4.73-.12-3.16-.27-6.31-.51-9.47-.39-6.31-1-12.62-1.56-18.93s-1-12.62-1.22-18.93l-.15-4.73,0-1.19,0-.59v-.52s0,.31,0,.45a3.58,3.58,0,0,0,2.69,3,2.54,2.54,0,0,0,.54.09l.29,0h-.44l-1.19,0c-3.15.08-6.31.1-9.46.14-12.62.13-25.24-.19-37.86-.49-6.31-.15-12.62-.29-18.93-.57s-12.62-.68-18.93-1a1.66,1.66,0,0,0,1.65-1.58v.29l-.07,1.19L4.6,15.17c-.09,1.58-.16,3.16-.23,4.74l-.21,4.73L4,29.37Q3.76,38.84,4,48.3c.13,6.31.51,12.62.92,18.93L5.2,72l.13,2A2.2,2.2,0,0,0,3.7,72.11a1.91,1.91,0,0,0-.33-.06c-.12,0-.25,0-.17,0h.44l1.18-.08c3.16-.19,6.31-.36,9.47-.51a301,301,0,0,1,37.86.79c6.31.5,12.62,1.12,18.93,1.54S83.7,74.38,90,74.36Z"/>
      <text class="cls-2" transform="translate(16.55 61.72)">Q</text>
    </g>
  </g>
</svg>
