<svg xmlns="http://www.w3.org/2000/svg" viewBox="0 0 253.92 73.13">
  <defs>
    <style>
      .cls-1 {
        fill: #696969;
      }

      .cls-2 {
        fill: #231815;
      }

      .cls-3 {
        fill: #55adb8;
      }
    </style>
  </defs>
  <title>nameLogo2</title>
  <g id="Layer_2" data-name="Layer 2">
    <g id="Layer_1-2" data-name="Layer 1">
      <g>
        <path class="cls-1" d="M58.24,43.13a28.87,28.87,0,0,1-1.52,9.24,29.39,29.39,0,0,1-4.24,8.2,27.28,27.28,0,0,1-6.36,6.24,20.83,20.83,0,0,1-7.88,3.44v.16h23V72H29a30.79,30.79,0,0,1-11.2-2A27.18,27.18,0,0,1,2.28,55,29.82,29.82,0,0,1,0,43.13a30.94,30.94,0,0,1,2.2-11.8,27.8,27.8,0,0,1,6.08-9.28A28.12,28.12,0,0,1,17.48,16a30.31,30.31,0,0,1,11.64-2.2A29.78,29.78,0,0,1,40.76,16,27.84,27.84,0,0,1,56,31.45,30.44,30.44,0,0,1,58.24,43.13Zm-1.76,0a28.89,28.89,0,0,0-2-10.72,27,27,0,0,0-5.64-8.84,26.75,26.75,0,0,0-8.68-6,27.41,27.41,0,0,0-11-2.2,27.73,27.73,0,0,0-11,2.16A26.14,26.14,0,0,0,3.76,32.29a29.4,29.4,0,0,0-2,10.84,27.66,27.66,0,0,0,2,10.64,26.82,26.82,0,0,0,5.68,8.68,26.19,26.19,0,0,0,8.68,5.84,28.07,28.07,0,0,0,11,2.12,27.06,27.06,0,0,0,11.28-2.28,26.59,26.59,0,0,0,8.6-6.08,27,27,0,0,0,5.48-8.72A27.82,27.82,0,0,0,56.48,43.13Z"/>
        <path class="cls-1" d="M68.4,72V35.21h1.76V72Z"/>
        <path class="cls-1" d="M107.12,63.69c0,1.39.07,2.87.2,4.44s.28,2.87.44,3.88h-1.68a14.35,14.35,0,0,1-.24-2c0-.77-.12-1.57-.2-2.4s-.13-1.64-.16-2.44,0-1.46,0-2h-.24a13.09,13.09,0,0,1-5.52,7.48,15.57,15.57,0,0,1-8.4,2.44,15.74,15.74,0,0,1-4.44-.64,12.35,12.35,0,0,1-4-1.92A9.62,9.62,0,0,1,80,67.29,9.76,9.76,0,0,1,79,62.57a9.43,9.43,0,0,1,2-6.32,13.71,13.71,0,0,1,5.08-3.72,23,23,0,0,1,6.52-1.72,57.66,57.66,0,0,1,6.36-.4h6.4v-3q0-6.15-3.28-9a12.63,12.63,0,0,0-8.56-2.84,15.54,15.54,0,0,0-6.12,1.2A18.28,18.28,0,0,0,82.32,40l-1-1.36a18.09,18.09,0,0,1,5.8-3.4,18.87,18.87,0,0,1,6.36-1.16q6.32,0,10,3.24t3.64,10.2Zm-1.76-11.76H99.68a60.12,60.12,0,0,0-6.4.36,23.45,23.45,0,0,0-6.16,1.48,11.79,11.79,0,0,0-4.6,3.2,8.28,8.28,0,0,0-1.8,5.6,8.34,8.34,0,0,0,1,4.28,8.19,8.19,0,0,0,2.56,2.76,11,11,0,0,0,3.44,1.52,14.39,14.39,0,0,0,3.56.48,13.71,13.71,0,0,0,6.8-1.52,12.72,12.72,0,0,0,4.36-3.88,14.72,14.72,0,0,0,2.28-5.2,25,25,0,0,0,.64-5.56Z"/>
        <path class="cls-1" d="M122.56,40.33a16.78,16.78,0,0,1,3.44-3.4,14.73,14.73,0,0,1,4.16-2.12,15.05,15.05,0,0,1,4.64-.72,13.63,13.63,0,0,1,6.4,1.36,11.15,11.15,0,0,1,4.08,3.6,15,15,0,0,1,2.16,5,25.24,25.24,0,0,1,.64,5.68V72h-1.76V49.93a26.18,26.18,0,0,0-.48-4.8,13.14,13.14,0,0,0-1.8-4.64A11.28,11.28,0,0,0,140.48,37a10.58,10.58,0,0,0-5.68-1.4,13.38,13.38,0,0,0-10.36,4.8,17.61,17.61,0,0,0-3.12,5.64,23,23,0,0,0-1.16,7.56V72H118.4V44.49c0-.58,0-1.3,0-2.16s0-1.72-.08-2.6-.07-1.72-.12-2.52-.11-1.46-.16-2h1.76c0,.54.09,1.2.12,2s.05,1.67.08,2.6.05,1.84.08,2.72,0,1.67,0,2.36h.16A14.87,14.87,0,0,1,122.56,40.33Z"/>
        <path class="cls-2" d="M186.64,62.25h.08l19-46.88h8.8V72h-5.76V22.81h-.16L188.08,72h-3l-20.48-49.2h-.16V72h-5.76V15.37h8.8Z"/>
        <path class="cls-2" d="M248.16,47.78c0-3.23-.86-5.64-2.56-7.22s-4.19-2.39-7.44-2.39a16.06,16.06,0,0,0-6.24,1.2,14.94,14.94,0,0,0-4.88,3.2L224,39a18,18,0,0,1,6.12-3.84,23,23,0,0,1,8.6-1.52,18.62,18.62,0,0,1,5.68.84A13.45,13.45,0,0,1,249,37a11.54,11.54,0,0,1,3.12,4.24,15,15,0,0,1,1.12,6v16.4c0,1.44.05,2.94.16,4.48a30.59,30.59,0,0,0,.48,3.92H249c-.16-.9-.29-1.89-.4-3a30.19,30.19,0,0,1-.16-3.12h-.16a15.75,15.75,0,0,1-5.8,5.4,17.15,17.15,0,0,1-7.8,1.64,17.41,17.41,0,0,1-4.44-.6,12.17,12.17,0,0,1-4.16-2A10.89,10.89,0,0,1,223,66.87a10.47,10.47,0,0,1-1.24-5.3,10.1,10.1,0,0,1,2.2-6.86,13.17,13.17,0,0,1,5.88-3.77,34.39,34.39,0,0,1,8.44-1.61c3.17-.24,6.47-.36,9.88-.36Zm-1.6,5.51c-2.24,0-4.5.1-6.76.28a29.66,29.66,0,0,0-6.16,1.12,11.71,11.71,0,0,0-4.52,2.44,5.44,5.44,0,0,0-1.76,4.24,6.73,6.73,0,0,0,.76,3.36,6.07,6.07,0,0,0,2,2.2,8.66,8.66,0,0,0,2.84,1.2,14,14,0,0,0,3.16.36,12.41,12.41,0,0,0,5.12-1A10.8,10.8,0,0,0,245,64.77a12.06,12.06,0,0,0,2.32-4,14,14,0,0,0,.8-4.72v-2.8Z"/>
      </g>
    </g>
    <g id="Layer_2-2" data-name="Layer 2">
      <circle class="cls-3" cx="69.28" cy="25.57" r="5.18"/>
      <circle class="cls-3" cx="88.42" cy="12.47" r="12.47"/>
    </g>
  </g>
</svg>
